<svg xmlns="http://www.w3.org/2000/svg" viewBox="0 0 64.36 99.58"><defs><style>.cls-1{fill:#26306e;}.cls-2{fill:#ffce3a;}.cls-3,.cls-4{fill:none;stroke-miterlimit:10;stroke-width:1.36px;}.cls-3{stroke:#ffce3a;}.cls-4{stroke:#26306e;}.cls-5{fill:#fff;}</style></defs><g id="Layer_2" data-name="Layer 2"><g id="Layer_1-2" data-name="Layer 1"><path class="cls-1" d="M52.34,49.89c-.74-.7-1.07-2.13-2.44-1.47s-.43,1.84-.22,2.87a12,12,0,0,1-6.13.62c-.08-1,.79-2.37-.85-2.76-1.42-.34-1.53,1-2,1.9a11.13,11.13,0,0,1-4.82-3.86c.76-.74,2.2-1.17,1.39-2.52s-1.79-.34-2.8-.08a11,11,0,0,1-.67-6.08l1.23.16a1.3,1.3,0,0,0,1.61-.89,1.25,1.25,0,0,0-.81-1.56c-.37-.16-.72-.33-1.15-.53A11.21,11.21,0,0,1,38.58,31c.74.7,1.07,2.13,2.45,1.43s.44-1.79.21-2.82a11.44,11.44,0,0,1,6.16-.64c-.06,1-.74,2.28.71,2.73s1.6-.95,2.14-1.85a11.07,11.07,0,0,1,4.81,3.84c-.77.73-2.21,1.14-1.41,2.51s1.79.34,2.81.08a11,11,0,0,1,.66,6.05c-1,.07-2.33-.69-2.79.72s1,1.59,1.89,2.13A11.09,11.09,0,0,1,52.34,49.89ZM52,42.44A6.73,6.73,0,0,0,47.76,34a7,7,0,0,0-8.88,4.3,6.83,6.83,0,0,0,4.48,8.55A6.9,6.9,0,0,0,52,42.44Z"/><ellipse class="cls-2" cx="32.65" cy="46.99" rx="1.4" ry="1.38"/><line class="cls-3" x1="32.65" y1="46.99" x2="25.41" y2="50.27"/><ellipse class="cls-1" cx="32.65" cy="46.99" rx="0.64" ry="0.63"/><ellipse class="cls-1" cx="41.29" cy="53.85" rx="1.4" ry="1.38"/><line class="cls-4" x1="38.26" y1="63.77" x2="41.19" y2="54.09"/><ellipse class="cls-2" cx="41.29" cy="53.85" rx="0.64" ry="0.63"/><ellipse class="cls-1" cx="31.14" cy="36.31" rx="1.4" ry="1.38"/><line class="cls-4" x1="24.23" y1="35.09" x2="29.87" y2="36.08"/><ellipse class="cls-2" cx="31.14" cy="36.31" rx="0.64" ry="0.63"/><path class="cls-1" d="M23.84,32.14c-7.73,11.26-8.61,22-4.62,33.79,2.22,6.56.84,13.2-4.78,20.18,6.81-1.17,16.19-11.73,16.32-19.18a26.12,26.12,0,0,0-.71-6.48C26.08,51.44,18,42.93,23.84,32.14Z"/><path class="cls-1" d="M28.73,22.94C18.24,30.31,12.41,42.07,17.37,55.22c2.44,6.48.71,13.36-5.75,20.26C19.2,73.34,26.37,64.63,26.5,57.19a25.66,25.66,0,0,0-.71-6.48C23.49,41.21,22.87,33.73,28.73,22.94Z"/><path class="cls-1" d="M23.83,40.41c-4,12.17-4.09,24.41,4,33.68,4.51,5.16,6.41,11,2.17,18.94,6.88-4.49,10.23-13.19,7.83-19.82a23,23,0,0,0-2.94-5.52C29.3,59.94,24.48,50.9,23.83,40.41Z"/><path class="cls-1" d="M27,54c.89,11.72,3.37,25,15.34,30.12C49,87,53.74,89.44,53.15,98.06,59,92.84,59,82,53.86,77.21a24.35,24.35,0,0,0-5.23-3.68C39.81,68.87,29.23,64.31,27,54Z"/><path class="cls-1" d="M26.55,53C29.62,64,36,73.43,49.13,76.41c7.35,1.66,12.55,5.07,13,13,4.11-6.65,2.36-14.74-3.79-18.5a26.7,26.7,0,0,0-6-2.69C42.43,65.19,30.76,62.49,26.55,53Z"/><path class="cls-1" d="M20.48,51.33c-1.43,12.14,2.21,22.72,10.66,30.94,4.94,4.81,9,9.08,6.47,17.31,6-5.48,7.52-14.26,3.58-20A23.25,23.25,0,0,0,36.94,75C29.49,68.77,23.51,61.94,20.48,51.33Z"/><path class="cls-2" d="M26.69,24.07C16.2,31.44,10.37,43.19,15.33,56.34c2.44,6.48,1.56,12.69-4.9,19.59,7.61-2.61,13.9-10.17,14-17.62a25.71,25.71,0,0,0-.71-6.48C21.45,42.33,20.83,34.86,26.69,24.07Z"/><path class="cls-2" d="M22.12,41.53C18.07,53.71,18.22,66,26.3,75.21c4.51,5.17,6.28,11.1,2,19.06,6.87-4.49,10.36-13.31,8-19.93a23.09,23.09,0,0,0-2.94-5.53C27.78,61.06,22.77,52,22.12,41.53Z"/><path class="cls-2" d="M24.51,54.16c3.07,11,9.39,20.4,22.58,23.38,7.35,1.66,13.86,5.07,14.32,13,4.1-6.65,1-14.74-5.11-18.5a27.15,27.15,0,0,0-6-2.69C40.38,66.31,28.72,63.61,24.51,54.16Z"/><path class="cls-2" d="M23.78,50.59c-1.35,12.18,2.15,23,10.83,31.31,5.06,4.86,5.54,9.44,3,17.68,6.1-5.46,11.27-14.51,7.2-20.3a24.07,24.07,0,0,0-4.36-4.67C32.81,68.34,24.66,55.53,23.78,50.59Z"/><path class="cls-5" d="M21.8,33.26c-7.73,11.26-6.21,21.06-2.22,32.82,2.23,6.56,1.63,12.93-4.83,19.83,7.61-2.61,13.84-10.41,14-17.86a26.34,26.34,0,0,0-.92-6.49C22.37,53,15.93,44.05,21.8,33.26Z"/><path class="cls-5" d="M24.38,54.43c.89,11.72,5.71,23,17.69,28.08,6.67,2.84,12.2,7.18,11.17,15.39a14.34,14.34,0,0,0-1.42-19.57,24.71,24.71,0,0,0-5.23-3.68C37.76,70,26.64,64.75,24.38,54.43Z"/><path class="cls-2" d="M55.32,66.82c7.18-10.55,6-21.88-.91-34.15C50.9,26.39,35,14.9,36.3,5.35,28.73,9.06,42.61,27,45.15,34a26.35,26.35,0,0,0,3,5.81C53.69,47.91,57,54.68,55.32,66.82Z"/><path class="cls-2" d="M53.66,48.77C53.09,36,49.41,22.92,38.38,17.34c-6-3-9-9.49-8.25-17.34-5.77,5.26-5.92,17.57-1.3,22.93a23,23,0,0,0,4.73,4.15C41.55,32.39,49.3,39.18,53.66,48.77Z"/><path class="cls-2" d="M45.87,37.15c-5-10.66-12.66-21.35-25.69-21.29-6.53,0-11.59-2.47-14.61-10.51-2.82,6.27-1.33,13.46,6.82,19.42,1.69,1.24,4.06,1.35,6.22,1.63C28.53,27.69,40.06,28.28,45.87,37.15Z"/><path class="cls-2" d="M46.6,37.9c-6.81-9.23-16.09-15.82-29.5-14-7.47,1-13.55-.38-16.83-7.67-1.46,7.65,3.07,14.61,10.17,16a26.8,26.8,0,0,0,6.61.41C27.39,32.05,39.27,30.52,46.6,37.9Z"/><path class="cls-2" d="M48.76,40.71c-3-11.85-10.21-20.48-21.06-25.24C21.36,12.68,16,10.11,15.46,1.52c-3.69,7.23-1.94,16,3.81,20a23.56,23.56,0,0,0,5.62,2.84C34.08,27.53,42.12,31.84,48.76,40.71Z"/><ellipse class="cls-2" cx="46.6" cy="39.83" rx="6.54" ry="6.56"/><path class="cls-1" d="M56.14,65.55C63.32,55,61.28,43.36,54.41,31.08,50.9,24.81,34.06,14.4,36.74,4.81c-7.2,4.65,5.87,20.59,8.41,27.61a26.57,26.57,0,0,0,3,5.81C53.69,46.33,57.77,53.42,56.14,65.55Z"/><path class="cls-5" d="M53.66,47.49c-.57-12.8-4.91-24.57-15.79-30.43-6.06-3.27-8.9-8-7.79-17C25.26,6.67,24.21,16,28.83,21.35a23.34,23.34,0,0,0,4.73,4.15C41.55,30.81,49.24,37.78,53.66,47.49Z"/><path class="cls-1" d="M46.6,36.31c-6.81-9.22-16.09-15.81-29.5-14-7.47,1-13.39-.38-16.66-7.67-1.46,7.65,2.9,14.61,10,16a26.8,26.8,0,0,0,6.61.41C27.39,30.46,39.27,28.94,46.6,36.31Z"/><path class="cls-1" d="M48.72,39.26c-3-11.86-10.17-20.62-21-25.38C21.36,11.1,16.65,8.77,16.1.17c-3.69,7.23-2.58,15.72,3.17,19.72a23.59,23.59,0,0,0,5.62,2.85C34.08,26,42.09,30.38,48.72,39.26Z"/><path class="cls-5" d="M45.87,35.85C40.84,25.19,33.05,16.63,20,16,12.77,15.7,7.54,13.53,5.57,5.49,3,13.05,5.86,20.63,12.39,23.33A25.43,25.43,0,0,0,18.61,25C28.53,26.25,38.78,27.38,45.87,35.85Z"/></g></g></svg>